<mxfile host="app.diagrams.net" agent="Mozilla/5.0 (Macintosh; Intel Mac OS X 10.15; rv:134.0) Gecko/20100101 Firefox/134.0" version="26.0.8">
  <diagram name="Page-1" id="bObrGGtt51SXWGbJWr-1">
    <mxGraphModel dx="1242" dy="795" grid="1" gridSize="10" guides="1" tooltips="1" connect="1" arrows="1" fold="1" page="0" pageScale="1" pageWidth="850" pageHeight="1100" math="0" shadow="0">
      <root>
        <mxCell id="0" />
        <mxCell id="1" parent="0" />
        <mxCell id="bbWJwlbJjzKB8nXCeNuv-17" style="edgeStyle=entityRelationEdgeStyle;rounded=0;orthogonalLoop=1;jettySize=auto;html=1;entryX=0;entryY=0.5;entryDx=0;entryDy=0;" edge="1" parent="1" source="bbWJwlbJjzKB8nXCeNuv-1" target="bbWJwlbJjzKB8nXCeNuv-16">
          <mxGeometry relative="1" as="geometry" />
        </mxCell>
        <mxCell id="bbWJwlbJjzKB8nXCeNuv-19" style="edgeStyle=entityRelationEdgeStyle;rounded=0;orthogonalLoop=1;jettySize=auto;html=1;entryX=0;entryY=0.5;entryDx=0;entryDy=0;" edge="1" parent="1" source="bbWJwlbJjzKB8nXCeNuv-1" target="bbWJwlbJjzKB8nXCeNuv-18">
          <mxGeometry relative="1" as="geometry" />
        </mxCell>
        <mxCell id="bbWJwlbJjzKB8nXCeNuv-1" value="Prometheus Monitoring" style="rounded=0;whiteSpace=wrap;html=1;" vertex="1" parent="1">
          <mxGeometry x="420" y="490" width="120" height="60" as="geometry" />
        </mxCell>
        <mxCell id="bbWJwlbJjzKB8nXCeNuv-9" style="edgeStyle=entityRelationEdgeStyle;rounded=0;orthogonalLoop=1;jettySize=auto;html=1;entryX=0;entryY=0.5;entryDx=0;entryDy=0;" edge="1" parent="1" source="bbWJwlbJjzKB8nXCeNuv-2" target="bbWJwlbJjzKB8nXCeNuv-1">
          <mxGeometry relative="1" as="geometry" />
        </mxCell>
        <mxCell id="bbWJwlbJjzKB8nXCeNuv-2" value="Load Balancers" style="rounded=0;whiteSpace=wrap;html=1;" vertex="1" parent="1">
          <mxGeometry x="110" y="250" width="120" height="60" as="geometry" />
        </mxCell>
        <mxCell id="bbWJwlbJjzKB8nXCeNuv-10" style="edgeStyle=entityRelationEdgeStyle;rounded=0;orthogonalLoop=1;jettySize=auto;html=1;" edge="1" parent="1" source="bbWJwlbJjzKB8nXCeNuv-3">
          <mxGeometry relative="1" as="geometry">
            <mxPoint x="420" y="520" as="targetPoint" />
          </mxGeometry>
        </mxCell>
        <mxCell id="bbWJwlbJjzKB8nXCeNuv-3" value="Sensor Input App" style="rounded=0;whiteSpace=wrap;html=1;" vertex="1" parent="1">
          <mxGeometry x="110" y="330" width="120" height="60" as="geometry" />
        </mxCell>
        <mxCell id="bbWJwlbJjzKB8nXCeNuv-12" style="edgeStyle=entityRelationEdgeStyle;rounded=0;orthogonalLoop=1;jettySize=auto;html=1;" edge="1" parent="1" source="bbWJwlbJjzKB8nXCeNuv-4">
          <mxGeometry relative="1" as="geometry">
            <mxPoint x="420" y="520" as="targetPoint" />
          </mxGeometry>
        </mxCell>
        <mxCell id="bbWJwlbJjzKB8nXCeNuv-4" value="&lt;div&gt;Data churning&amp;nbsp;&lt;/div&gt;&lt;div&gt;Worker Fleet&lt;/div&gt;" style="rounded=0;whiteSpace=wrap;html=1;" vertex="1" parent="1">
          <mxGeometry x="110" y="490" width="120" height="60" as="geometry" />
        </mxCell>
        <mxCell id="bbWJwlbJjzKB8nXCeNuv-13" style="edgeStyle=entityRelationEdgeStyle;rounded=0;orthogonalLoop=1;jettySize=auto;html=1;" edge="1" parent="1" source="bbWJwlbJjzKB8nXCeNuv-5">
          <mxGeometry relative="1" as="geometry">
            <mxPoint x="420" y="520" as="targetPoint" />
          </mxGeometry>
        </mxCell>
        <mxCell id="bbWJwlbJjzKB8nXCeNuv-5" value="Redis" style="rounded=0;whiteSpace=wrap;html=1;" vertex="1" parent="1">
          <mxGeometry x="110" y="570" width="120" height="60" as="geometry" />
        </mxCell>
        <mxCell id="bbWJwlbJjzKB8nXCeNuv-14" style="edgeStyle=entityRelationEdgeStyle;rounded=0;orthogonalLoop=1;jettySize=auto;html=1;" edge="1" parent="1" source="bbWJwlbJjzKB8nXCeNuv-6">
          <mxGeometry relative="1" as="geometry">
            <mxPoint x="420" y="520" as="targetPoint" />
          </mxGeometry>
        </mxCell>
        <mxCell id="bbWJwlbJjzKB8nXCeNuv-6" value="Sensor Raw Data DB Cluster" style="rounded=0;whiteSpace=wrap;html=1;" vertex="1" parent="1">
          <mxGeometry x="110" y="650" width="120" height="60" as="geometry" />
        </mxCell>
        <mxCell id="bbWJwlbJjzKB8nXCeNuv-15" style="edgeStyle=entityRelationEdgeStyle;rounded=0;orthogonalLoop=1;jettySize=auto;html=1;entryX=0;entryY=0.5;entryDx=0;entryDy=0;" edge="1" parent="1" source="bbWJwlbJjzKB8nXCeNuv-7" target="bbWJwlbJjzKB8nXCeNuv-1">
          <mxGeometry relative="1" as="geometry" />
        </mxCell>
        <mxCell id="bbWJwlbJjzKB8nXCeNuv-7" value="Report DB" style="rounded=0;whiteSpace=wrap;html=1;" vertex="1" parent="1">
          <mxGeometry x="110" y="730" width="120" height="60" as="geometry" />
        </mxCell>
        <mxCell id="bbWJwlbJjzKB8nXCeNuv-11" style="edgeStyle=entityRelationEdgeStyle;rounded=0;orthogonalLoop=1;jettySize=auto;html=1;entryX=0;entryY=0.5;entryDx=0;entryDy=0;" edge="1" parent="1" source="bbWJwlbJjzKB8nXCeNuv-8" target="bbWJwlbJjzKB8nXCeNuv-1">
          <mxGeometry relative="1" as="geometry" />
        </mxCell>
        <mxCell id="bbWJwlbJjzKB8nXCeNuv-8" value="Dashboard App" style="rounded=0;whiteSpace=wrap;html=1;" vertex="1" parent="1">
          <mxGeometry x="110" y="410" width="120" height="60" as="geometry" />
        </mxCell>
        <mxCell id="bbWJwlbJjzKB8nXCeNuv-16" value="Grafana" style="rounded=0;whiteSpace=wrap;html=1;" vertex="1" parent="1">
          <mxGeometry x="650" y="410" width="120" height="60" as="geometry" />
        </mxCell>
        <mxCell id="bbWJwlbJjzKB8nXCeNuv-18" value="Alertmanager" style="rounded=0;whiteSpace=wrap;html=1;" vertex="1" parent="1">
          <mxGeometry x="650" y="570" width="120" height="60" as="geometry" />
        </mxCell>
      </root>
    </mxGraphModel>
  </diagram>
</mxfile>
